PathFileType	4	(X/Y/Z)	Patient4_TMGait_0pt3_01_right_08.trc.trc
DataRate	CameraRate	NumFrames	NumMarkers	Units	OrigDataRate	OrigDataStartFrame	OrigNumFrames
51.282051282051	51.282051282051	6	33	mm	51.282051282051	53	       141
Frame#	Time	Sacral			L.Shoulder			Chest			R.Shoulder			Neck			R.ASIS			L.ASIS			R.Thigh.Superior			R.Thigh.Lateral			R.Thigh.Inferior			R.Patella			L.Thigh.Superior			L.Thigh.Lateral			L.Thigh.Inferior			L.Patella			L.Shank.Superior			L.Shank.Lateral			L.Shank.Inferior			R.Shank.Superior			R.Shank.Lateral			R.Shank.Inferior			R.Heel			R.Midfoot.Superior			R.Midfoot.Lateral			R.Toe			L.Heel			L.Midfoot.Lateral			L.Midfoot.Superior			L.Toe			L.Elbow			L.Wrist			R.Elbow			R.Wrist			
		X1	Y1	Z1	X2	Y2	Z2	X3	Y3	Z3	X4	Y4	Z4	X5	Y5	Z5	X6	Y6	Z6	X7	Y7	Z7	X8	Y8	Z8	X9	Y9	Z9	X10	Y10	Z10	X11	Y11	Z11	X12	Y12	Z12	X13	Y13	Z13	X14	Y14	Z14	X15	Y15	Z15	X16	Y16	Z16	X17	Y17	Z17	X18	Y18	Z18	X19	Y19	Z19	X20	Y20	Z20	X21	Y21	Z21	X22	Y22	Z22	X23	Y23	Z23	X24	Y24	Z24	X25	Y25	Z25	X26	Y26	Z26	X27	Y27	Z27	X28	Y28	Z28	X29	Y29	Z29	X30	Y30	Z30	X31	Y31	Z31	X32	Y32	Z32	X33	Y33	Z33	

53	14.584000000000	768.286732623139	993.897074284370	595.173264415620	942.600020059674	1430.893866337890	419.270647634006	1044.067645587561	1364.063053684340	580.923294749253	957.194901588815	1432.507536764027	755.084970701718	922.848805639443	1490.011456774553	581.469748834099	1001.988621581982	938.135666797384	713.088848346477	986.294696046158	961.157014609603	439.831725745208	1049.197472451374	740.257882117952	675.744514246909	971.565118641651	623.929383646596	727.851819882423	1051.759232404417	578.110622163358	647.486718901197	1053.835590835514	485.823985084821	649.795038460542	1063.417785028818	764.530281165881	465.125378473052	1009.345747480744	640.892362992426	385.135786993779	1106.797890865391	572.287709745462	448.640124753559	1116.466965577921	486.753175387778	437.404226865303	1057.208209698593	421.702184001265	421.183491994005	922.404098040054	362.357074191828	373.953844728343	936.550947300299	227.271539967049	412.983810756439	1017.400995047676	397.123663328004	650.720318250709	937.312868110886	295.481020071515	705.495808869784	972.967247614329	202.071799818936	638.337140414503	827.775372894087	42.943958524529	597.569564065444	999.031252050344	97.223747755098	640.872980510233	908.497757367136	36.741511667103	675.607094860461	1117.000220933455	45.750436719299	671.964347722404	765.630701302196	118.452358243599	453.586557086184	822.968719067461	103.249808180542	362.416188536097	925.148331126796	131.359908215902	378.926370026330	1021.605754950092	47.670116511774	323.700244631427	911.369171588039	1077.197999384682	305.555790974642	985.428233757544	827.248780599669	305.009312943426	963.100159716797	1086.412410562199	886.093819522771	1159.833757792032	918.326720093114	910.973220399256	
54	14.603500000000	765.310759138577	993.116426675969	597.222740962685	939.414299610133	1429.490592297765	419.496008874419	1042.526528227235	1362.440930351613	580.061460048721	958.057119245765	1431.474514293228	755.210616088679	921.607320631258	1488.948618802374	581.691238983999	999.924159815652	936.881972004567	712.935195824444	981.730331974767	960.326985189338	439.811764438044	1047.228940880625	739.420142434073	674.818770109926	970.512724973933	622.756258542188	727.468982262972	1050.024391978451	577.267525298292	646.235974296915	1052.240059214000	484.685096933231	648.412311854762	1060.695331470364	765.651892263980	465.771821571956	1008.635221257792	641.821548216538	385.422114589340	1106.259656227875	574.414322949898	449.703576050548	1118.053442857519	489.812746208822	438.193356968003	1061.809709740100	423.401590233779	421.171154500749	930.353583270322	357.848987335211	372.842590972956	950.799704259058	223.248428720581	411.622310459142	1015.012031935347	395.923731327183	649.617450548533	934.407195008087	294.903720954729	704.853617714191	968.637312608950	201.307556386519	637.591216093815	821.897718899438	42.887844962713	597.542626875395	993.186307122337	97.157292985332	640.656300074097	902.624326905913	36.788055428762	675.705710986748	1111.110193387497	45.764326310445	671.960190868511	785.147149825149	105.726367173593	450.981295660692	843.786617867947	93.781977452130	360.061999251748	944.382060196897	127.012771271393	377.217408605433	1045.411315887478	48.696451012862	322.285056572254	897.194651416127	1076.389468548041	308.280582676752	953.090052357720	821.431308529289	308.762746238662	973.574305229064	1085.575533465854	886.071678533802	1178.724366115459	927.718132189731	906.769164022009	
55	14.623000000000	762.324420446545	992.546864080458	599.156243049922	936.202558365844	1428.229093717524	419.473911242484	1041.022442761764	1360.883856228439	578.848929167300	959.121972999269	1430.572557940940	754.996271284267	920.474603692884	1488.007676906780	581.655331233586	997.783148117041	935.715302347537	712.515253337146	977.037086169695	959.562211322778	439.513043315930	1044.940646798454	738.581488358231	673.720503037372	969.007407196411	621.702540720351	726.983428127847	1047.752495879405	576.451765633935	644.851173048706	1050.000143958057	483.677059027581	646.896034205194	1057.617060088537	766.827379264667	466.416948224979	1007.726533866300	642.896627387693	385.537277193159	1105.334191030425	576.638851826096	450.748491631545	1119.258156066504	493.047971204172	438.908922219961	1066.125043815749	425.329468568490	421.128189364262	938.428478742808	353.591129736311	371.505434782287	965.081170195593	219.817785561774	410.287232196755	1012.124892342581	394.843472737353	648.451694531217	931.162075141436	294.363341949720	704.223736201101	964.072369676372	200.601414686886	636.844045792433	816.013610153718	42.822091402966	597.524202981116	987.298714785743	97.088836893757	640.423942591085	896.738252315586	36.811950143825	675.788563325350	1105.209447144470	45.790340890700	671.944764990330	804.966497764310	94.062414434257	448.145549869420	865.001273835424	85.086757063073	357.715363295199	963.782081521427	123.258601629287	375.727179976597	1069.144655057071	50.181845631162	321.649499057414	882.870688006059	1076.161002156580	310.704664811250	922.183896284222	817.907032244608	312.579690333409	984.345044516315	1085.277514949685	885.767697319724	1197.669176170938	938.608829258301	901.868923487832	
56	14.642500000000	759.386265220449	992.311360000181	600.984185954687	932.940714356946	1427.231862445861	419.204185896335	1039.554255723947	1359.530315956321	577.271428592753	960.393827474466	1429.927447158763	754.423452548432	919.435534763467	1487.295229531282	581.369531567295	995.619527473080	934.746920626309	711.838714714223	972.278970030793	958.970363646751	438.956417222042	1042.272790580178	737.781624006170	672.518455721276	966.890568371311	620.858676789824	726.446058614548	1044.780903779023	575.701482143276	643.424207197703	1046.909190891247	482.856600269272	645.353735823137	1054.229168498046	768.144933098825	467.009858629760	1006.565960737433	644.182816165463	385.442664992271	1104.039564781890	579.010329204437	451.614621115233	1120.052227428492	496.504818059896	439.423198425499	1070.051195207795	427.557184479613	421.001628373789	946.452334838154	349.799367113472	370.000900746860	979.112955799698	217.191602731988	409.045067702449	1008.563076595039	393.959545941373	647.315371016679	927.414704721880	293.905220044866	703.657904515702	959.190430458764	200.006150041505	636.154187925046	810.118476766976	42.750588186833	597.521853908046	981.369071040949	97.025476634409	640.200197646856	890.837187515335	36.811838239390	675.855534553325	1099.294800005726	45.828077743306	671.919650193227	824.734969236027	83.815617708667	445.304559097250	886.197297945559	77.501461208582	355.547187923007	982.965165675030	120.352125786281	374.536283164631	1092.327793519133	52.296906380707	321.783012445904	868.528418375607	1076.613152089328	312.822464020416	893.114624244842	816.467740595462	316.395309148620	995.335069699196	1085.657757661982	885.174813423818	1216.418883413036	951.078873550590	896.300396098371	
57	14.662000000000	756.550157989649	992.514982882821	602.704129741687	929.620927858200	1426.601650224299	418.690358815617	1038.126351082139	1358.501527882517	575.327055133384	961.868112732458	1429.648934194559	753.479129011322	918.474005597214	1486.900827565411	580.840718655881	993.483686256099	934.068138461835	710.918287468082	967.521635219092	958.647987452861	438.169441698727	1039.180970053446	737.055930489760	671.261692727822	964.044200596403	620.299869285568	725.895855699140	1040.983234232099	575.049599850903	642.026492210240	1042.807674525034	482.269396053278	643.873520579003	1050.586925042175	769.664329169038	467.470670469393	1005.065316535764	645.708425108676	385.102456873436	1102.364208334228	581.534954552267	452.136156037664	1120.372420205200	500.193572532304	439.618335508905	1073.462447044665	430.115040833175	420.737882926447	954.224728612559	346.606200178020	368.369955015798	992.620251502314	215.480391879529	407.932914074693	1004.190423295440	393.336424135516	646.282998400358	923.036665981093	293.570684686534	703.192282127826	953.929524795563	199.567761459689	635.566627143328	804.209088101060	42.677531028028	597.539773735346	975.400495642322	96.973676665908	640.006904135736	884.920306791912	36.789456515987	675.909024246711	1093.364224089655	45.876638416872	671.887258158334	844.107604751112	75.166771996593	442.628619698589	906.985956015245	71.209624392609	353.678141323493	1001.580054826209	118.434911294727	373.684784870901	1114.563243502443	55.138688010933	322.634713319675	854.336119721882	1077.809539822929	314.634447898069	866.203999039443	816.846715931522	320.147695692951	1006.458019266252	1086.822136497749	884.269073437813	1234.710248556289	965.133002122766	890.089410732219	
58	14.681500000000	753.861980662974	993.222414032556	604.303446774225	926.254046583230	1426.401362748364	417.938375646336	1036.748455969771	1357.879871066661	573.027300559305	963.529903177621	1429.810860174482	752.157584725265	917.573914423201	1486.879783960281	580.072544299624	991.420443781941	933.734535528717	709.770388738605	962.829079144111	958.660345413858	437.182417828772	1035.645646992816	736.428705304496	669.975549688189	960.411232681200	620.074157011300	725.358357817950	1036.291195017564	574.517599575200	640.703762615266	1037.609734730051	481.942529549681	642.516414706876	1046.754049708353	771.400863521534	467.704562653885	1003.124816705249	647.453364378874	384.491660444656	1100.278455542166	584.167275085757	452.171952207282	1120.137655892316	504.074714211074	439.406885868598	1076.227129108914	432.979756595256	420.293057486246	961.537103802267	344.056269187302	366.639153233710	1005.344635463988	214.690162137732	406.958380439227	998.933774930488	393.015516609767	645.403935325720	917.954978120012	293.389630580567	702.845590242442	948.257667279148	199.317690613871	635.107974125508	798.283926704373	42.607019804365	597.578366966563	969.398163082175	96.937397887494	639.859480108665	878.988522456497	36.748995767502	675.952763637729	1087.417535167034	45.933688386257	671.850489707577	862.753442075360	68.136918575148	440.222936503517	927.007274158064	66.250093591802	352.169460964483	1019.309825815199	117.531397626732	373.168324450040	1135.524526106457	58.714036698766	324.109436693314	840.484743090118	1079.755835280344	316.146584048624	841.686217443300	818.728411752845	323.780590525688	1017.625739002322	1088.827534013496	883.017217804466	1252.289389268123	980.691329844644	883.264583306533	
